<?xml version="1.0" encoding="UTF-8" standalone="no"?>
<svg width="64" height="64">
	<g transform="matrix(1.2,0,0,1.2,-579.7336,-567.9832)">
		<path d="m 509.778,477.486 c -12.426,0 -22.5,10.072 -22.5,22.5 0,12.426 10.074,22.5 22.5,22.5 12.428,0 22.5,-10.074 22.5,-22.5 0,-12.427 -10.072,-22.5 -22.5,-22.5 z m 11.5,25 c 0,0.549 -0.451,1 -1,1 h -6 c -0.551,0 -1.001,0.449 -1.001,1 v 6 c 0,0.549 -0.45,1 -1,1 h -5 c -0.55,0 -1,-0.451 -1,-1 v -6 c 0,-0.551 -0.45,-1 -1,-1 h -6 c -0.55,0 -1,-0.451 -1,-1 v -5 c 0,-0.551 0.45,-1 1,-1 h 6 c 0.55,0 1,-0.451 1,-1 v -6 c 0,-0.551 0.45,-1 1,-1 h 5 c 0.55,0 1,0.449 1,1 v 6 c 0,0.549 0.45,1 1.001,1 h 6 c 0.549,0 1,0.449 1,1 v 5 z"
		      style="fill:#333333;fill-rule:evenodd" />
	</g>
</svg>
