<?xml version="1.0" encoding="UTF-8" standalone="no"?>
<svg width="64" height="64">
	<g transform="matrix(1.2,0,0,1.2,-651.9616,-494.5316)">
		<path d="m 562.663,451.271 -1.24,-3.193 h -0.188 c -0.463,0.631 -0.926,1.174 -1.389,1.629 -0.463,0.457 -0.967,0.832 -1.514,1.125 -0.547,0.295 -1.16,0.512 -1.838,0.65 -0.682,0.143 -1.469,0.211 -2.365,0.211 -0.953,0 -1.836,-0.148 -2.648,-0.455 -0.813,-0.299 -1.516,-0.756 -2.111,-1.361 -0.596,-0.611 -1.061,-1.381 -1.396,-2.314 -0.336,-0.932 -0.506,-2.035 -0.506,-3.311 0,-2.494 0.799,-4.332 2.396,-5.518 1.598,-1.184 3.986,-1.838 7.168,-1.965 l 3.74,-0.125 v -1.766 c 0,-0.967 -0.279,-1.682 -0.842,-2.145 -0.559,-0.461 -1.344,-0.693 -2.354,-0.693 -1.01,0 -1.994,0.146 -2.953,0.441 -0.959,0.295 -1.924,0.688 -2.891,1.178 l -2.08,-4.246 c 1.178,-0.658 2.48,-1.177 3.908,-1.554 1.43,-0.379 2.93,-0.568 4.498,-0.568 2.93,0 5.174,0.688 6.736,2.06 1.563,1.373 2.344,3.461 2.344,6.264 v 15.658 h -4.477 v -0.002 z m -1.891,-10.887 -2.123,0.084 c -0.854,0.027 -1.578,0.141 -2.164,0.336 -0.59,0.195 -1.063,0.457 -1.42,0.787 -0.357,0.33 -0.615,0.721 -0.777,1.178 -0.16,0.455 -0.24,0.963 -0.24,1.523 0,0.98 0.238,1.678 0.713,2.092 0.477,0.412 1.102,0.619 1.871,0.619 0.59,0 1.135,-0.102 1.641,-0.305 0.504,-0.203 0.941,-0.504 1.313,-0.902 0.373,-0.4 0.662,-0.891 0.873,-1.471 0.211,-0.582 0.314,-1.252 0.314,-2.01 v -1.931 l -10e-4,0 z"
		      style="fill:#333333" />
		<path d="m 568.976,440.552 v -4.244 h 9.549 v 4.244 h -9.549 z"
		      style="fill:#333333" />
		<path d="m 592.468,451.241 h -17.279 v -3.785 l 9.607,-14.816 h -8.953 v -4.896 h 16.225 v 4.159 l -9.289,14.441 h 9.689 v 4.897 z"
		      style="fill:#333333" />
	</g>
</svg>
