<svg xmlns:rdf="http://www.w3.org/1999/02/22-rdf-syntax-ns#" xmlns="http://www.w3.org/2000/svg" height="64" width="64" version="1.1" xmlns:cc="http://creativecommons.org/ns#" xmlns:dc="http://purl.org/dc/elements/1.1/">
	<metadata>
		<rdf:RDF>
			<cc:Work rdf:about="">
				<dc:format>image/svg+xml</dc:format>
				<dc:type rdf:resource="http://purl.org/dc/dcmitype/StillImage"/>
				<dc:title/>
			</cc:Work>
		</rdf:RDF>
	</metadata>
	<path d="M57.268,52.064,55.78,48.233h-0.2256c-0.5556,0.7572-1.1112,1.4088-1.6668,1.9548-0.5556,0.5484-1.1604,0.9984-1.8168,1.35-0.6564,0.354-1.392,0.6144-2.2056,0.78-0.8184,0.1716-1.7628,0.2532-2.838,0.2532-1.1436,0-2.2032-0.1776-3.1776-0.546-0.9756-0.3588-1.8192-0.9072-2.5332-1.6332-0.7152-0.7332-1.2732-1.6572-1.6752-2.7768-0.4032-1.1184-0.6072-2.442-0.6072-3.9732,0-2.9928,0.9588-5.1984,2.8752-6.6216,1.9176-1.4208,4.7832-2.2056,8.6016-2.358l4.488-0.15v-2.1192c0-1.1604-0.3348-2.0184-1.0104-2.574-0.6708-0.5532-1.6128-0.8316-2.8248-0.8316s-2.3928,0.1752-3.5436,0.5292-2.3088,0.8256-3.4692,1.4136l-2.496-5.0952c1.4136-0.7896,2.976-1.4124,4.6896-1.8648,1.716-0.4548,3.516-0.6816,5.3976-0.6816,3.516,0,6.2088,0.8256,8.0832,2.472,1.8756,1.6476,2.8128,4.1532,2.8128,7.5168v18.79h-5.3724v-0.0024zm-0.781-9.233-2.548,0.101c-1.0248,0.0324-1.8936,0.1692-2.5968,0.4032-0.708,0.234-1.2756,0.5484-1.704,0.9444s-0.738,0.8652-0.9324,1.4136c-0.192,0.546-0.288,1.1556-0.288,1.8276,0,1.176,0.2856,2.0136,0.8556,2.5104,0.5724,0.4944,1.3224,0.7428,2.2452,0.7428,0.708,0,1.362-0.1224,1.9692-0.366,0.6048-0.2436,1.1292-0.6048,1.5756-1.0824,0.4476-0.48,0.7944-1.0692,1.0476-1.7652,0.252-0.699,0.376-1.503,0.376-2.413v-2.317h-0.0012z" fill="#333"/>
	<path d="M26,38,14,38,9,54,3,54,17,9h6l8,25h-6l-5-18-5,18h16l6,20h-6z" fill="#333"/>
</svg>
