<?xml version="1.0" encoding="UTF-8" standalone="no"?>
<svg width="64" height="64">
	<g transform="matrix(1.2136037,0,0,1.2136037,-732.43441,-64.413778)">
		<path d="m 617.617,100.868 c -0.703,0 -1.336,-0.279 -1.781,-0.785 -0.496,-0.56 -0.707,-1.346 -0.6,-2.215 l 1.354,-10.822 c 0.074,-0.585 -0.262,-1.62 -0.666,-2.049 l -7.453,-7.961 c -0.742,-0.792 -1.004,-1.754 -0.717,-2.637 0.287,-0.883 1.063,-1.508 2.129,-1.712 l 10.709,-2.056 c 0.578,-0.111 1.459,-0.752 1.746,-1.27 l 5.08,-9.213 c 0.199,-0.404 0.988,-1.78 2.469,-1.78 1.557,0 2.383,1.58 2.531,1.897 l 5.02,9.097 c 0.285,0.517 1.168,1.157 1.746,1.269 l 10.709,2.056 c 1.066,0.205 1.842,0.829 2.129,1.712 0.287,0.883 0.025,1.844 -0.717,2.637 l -7.453,7.96 c -0.404,0.43 -0.74,1.465 -0.668,2.051 l 1.352,10.822 c 0.109,0.866 -0.102,1.652 -0.596,2.213 -0.723,0.816 -1.939,1.017 -3.1,0.475 l -9.873,-4.633 c -0.197,-0.092 -0.582,-0.189 -1.08,-0.189 -0.498,0 -0.883,0.098 -1.078,0.188 l -9.873,4.633 c -0.444,0.207 -0.887,0.312 -1.319,0.312 l 0,0 z m 12.27,-8.239 c 0.883,0 1.734,0.172 2.398,0.484 l 9.057,4.249 -1.238,-9.932 c -0.186,-1.498 0.451,-3.457 1.482,-4.557 l 6.84,-7.304 -9.828,-1.891 c -1.48,-0.284 -3.148,-1.495 -3.879,-2.817 l -4.832,-8.764 -4.832,8.763 c -0.73,1.323 -2.396,2.534 -3.879,2.818 l -9.824,1.887 6.838,7.309 c 1.031,1.101 1.668,3.06 1.48,4.558 l -1.242,9.928 9.063,-4.247 c 0.663,-0.312 1.515,-0.484 2.396,-0.484 l 0,0 z"
		      style="fill:#333369" />
	</g>
</svg>
