<?xml version="1.0" encoding="UTF-8" standalone="no"?>
<svg width="64" height="64">
	<g transform="matrix(1.2135952,0,0,1.2135952,-732.42924,-136.47014)">
		<path d="m 617.617,160.243 c -0.701,0 -1.334,-0.279 -1.781,-0.785 -0.494,-0.56 -0.707,-1.346 -0.598,-2.215 l 1.354,-10.822 c 0.072,-0.585 -0.264,-1.62 -0.668,-2.049 l -7.453,-7.961 c -0.742,-0.792 -1.004,-1.753 -0.717,-2.637 0.287,-0.883 1.063,-1.507 2.129,-1.712 l 10.709,-2.056 c 0.578,-0.111 1.461,-0.751 1.746,-1.27 l 5.08,-9.213 c 0.199,-0.404 0.99,-1.779 2.469,-1.779 1.557,0 2.383,1.58 2.531,1.896 l 5.02,9.097 c 0.287,0.517 1.168,1.158 1.746,1.269 l 10.709,2.056 c 1.066,0.205 1.842,0.829 2.129,1.712 0.287,0.883 0.027,1.845 -0.717,2.637 l -7.453,7.96 c -0.404,0.431 -0.74,1.465 -0.668,2.051 l 1.354,10.822 c 0.107,0.866 -0.104,1.652 -0.598,2.213 -0.723,0.817 -1.939,1.017 -3.1,0.475 l -9.873,-4.633 c -0.195,-0.092 -0.582,-0.19 -1.08,-0.19 -0.496,0 -0.883,0.098 -1.078,0.189 l -9.871,4.633 c -0.446,0.207 -0.889,0.312 -1.321,0.312 l 0,0 z m 12.27,-8.238 c 0.883,0 1.734,0.171 2.398,0.484 l 9.057,4.249 -1.238,-9.932 c -0.186,-1.498 0.451,-3.457 1.482,-4.557 l 6.84,-7.304 -9.828,-1.891 c -1.48,-0.285 -3.148,-1.496 -3.879,-2.818 l -4.832,-8.764 -4.832,8.763 c -0.73,1.323 -2.396,2.534 -3.877,2.819 l -9.826,1.886 6.838,7.309 c 1.031,1.101 1.668,3.06 1.48,4.559 l -1.24,9.928 9.061,-4.247 c 0.663,-0.313 1.515,-0.484 2.396,-0.484 l 0,0 z"
		      style="fill:#333369" />
		<path d="m 641.045,137.83 c 0.396,-0.424 0.254,-0.861 -0.316,-0.971 l -5.891,-1.131 c -0.568,-0.109 -1.264,-0.616 -1.547,-1.124 l -2.783,-5.05 c 0,0 -0.262,-0.554 -0.621,-0.554 -0.357,0 -0.6,0.518 -0.6,0.518 l -2.805,5.087 c -0.281,0.508 -0.977,1.015 -1.547,1.124 l -5.889,1.131 c -0.57,0.11 -0.713,0.547 -0.314,0.971 l 4.098,4.377 c 0.398,0.424 0.664,1.242 0.592,1.817 l -0.744,5.952 c -0.072,0.576 0.299,0.846 0.824,0.599 l 5.43,-2.547 c 0.264,-0.123 0.609,-0.185 0.955,-0.185 0.348,0 0.693,0.062 0.957,0.185 l 5.428,2.547 c 0.133,0.062 0.254,0.091 0.363,0.091 0.322,0 0.518,-0.26 0.463,-0.69 l -0.742,-5.952 c -0.074,-0.576 0.191,-1.394 0.59,-1.817 l 4.099,-4.378 z m -9.563,-2.222 c 0.578,1.042 1.797,1.928 2.967,2.153 l 3.242,0.623 -2.256,2.408 c -0.818,0.871 -1.283,2.308 -1.135,3.49 l 0.408,3.275 -2.988,-1.402 c -0.67,-0.314 -1.367,-0.38 -1.834,-0.38 v -13.059 l 1.596,2.892 z"
		      style="fill:#333369" />
	</g>
</svg>
