<?xml version="1.0" encoding="UTF-8" standalone="no"?>
<svg width="64" height="64">
	<g transform="matrix(1.1999968,0,0,1.3606385,-147.9521,-648.3007)">
		<path d="m 170.351,504.021 c -0.343,0.365 -0.922,0.385 -1.288,0.043 L 150.392,486.63 c -0.365,-0.342 -0.966,-0.342 -1.332,0 l -18.204,16.97 c -0.367,0.344 -0.945,0.322 -1.287,-0.045 l -1.865,-2 c -0.342,-0.365 -0.321,-0.945 0.045,-1.287 l 21.313,-19.869 c 0.367,-0.342 0.967,-0.342 1.334,0.002 l 21.777,20.334 c 0.365,0.342 0.386,0.922 0.043,1.289 l -1.865,1.997 z"
		      style="fill:#333333"/>
		<path d="m 149.725,489.777 -15.345,14.305 v 14.83 c 0,0.504 0.414,0.918 0.919,0.918 h 10.085 v -12.857 c 0,-0.504 0.414,-0.918 0.919,-0.918 h 7.347 c 0.506,0 0.918,0.414 0.918,0.918 v 12.857 h 10.119 c 0.505,0 0.918,-0.414 0.918,-0.918 v -14.307 l -15.88,-14.828 z"
		      style="fill:#333333"/>
		<path d="m 165.543,482.311 c 0,-0.506 -0.414,-0.92 -0.919,-0.92 h -5.51 c -0.505,0 -0.918,0.414 -0.918,0.92 v 1.604 l 7.347,6.918 v -8.522 z"
		      style="fill:#333333"/>
	</g>
</svg>
