<?xml version="1.0" encoding="UTF-8" standalone="no"?>
<svg width="64" height="64">
	<g transform="matrix(1.2,0,0,1.2,-579.7336,-639.148)">
		<path d="m 509.778,536.79 c -12.427,0 -22.5,10.074 -22.5,22.5 0,12.428 10.073,22.5 22.5,22.5 12.426,0 22.5,-10.072 22.5,-22.5 0,-12.426 -10.074,-22.5 -22.5,-22.5 z m 3.749,35.66 c 0,0.516 -0.422,0.938 -0.937,0.938 h -5.625 c -0.516,0 -0.938,-0.422 -0.938,-0.938 v -15 c 0,-0.514 0.422,-0.938 0.938,-0.938 h 5.625 c 0.515,0 0.937,0.424 0.937,0.938 v 15 z m 0,-19.758 c 0,0.516 -0.422,0.938 -0.937,0.938 h -5.625 c -0.516,0 -0.938,-0.422 -0.938,-0.938 v -6.563 c 0,-0.516 0.422,-0.938 0.938,-0.938 h 5.625 c 0.515,0 0.937,0.422 0.937,0.938 v 6.563 z"
		      style="fill:#333333" />
	</g>
</svg>
