<?xml version="1.0" encoding="UTF-8" standalone="no"?>
<svg width="64" height="64">
	<g transform="matrix(1.1999733,0,0,1.1999733,-364.43055,-494.42419)">
		<path d="m 352.572,429.142 c 0,0.494 -0.406,0.9 -0.9,0.9 h -43.201 c -0.494,0 -0.9,-0.406 -0.9,-0.9 v -8.099 c 0,-0.496 0.406,-0.9 0.9,-0.9 h 43.201 c 0.494,0 0.9,0.404 0.9,0.9 v 8.099 z"
		      style="fill:#333333" />
		<path d="m 352.572,443.542 c 0,0.494 -0.406,0.9 -0.9,0.9 h -43.201 c -0.494,0 -0.9,-0.406 -0.9,-0.9 v -8.1 c 0,-0.496 0.406,-0.9 0.9,-0.9 h 43.201 c 0.494,0 0.9,0.404 0.9,0.9 v 8.1 z"
		      style="fill:#333333" />
		<path d="m 352.572,457.942 c 0,0.494 -0.406,0.898 -0.9,0.898 h -43.201 c -0.494,0 -0.9,-0.404 -0.9,-0.898 v -8.102 c 0,-0.494 0.406,-0.898 0.9,-0.898 h 43.201 c 0.494,0 0.9,0.404 0.9,0.898 v 8.102 z"
		      style="fill:#333333" />
	</g>
</svg>
