<?xml version="1.0" encoding="UTF-8" standalone="no"?>
<svg width="64" height="64">
	<g transform="matrix(1.1818182,0,0,1.2857143,-429.68201,-454.27086)">
		<path d="m 406.154,357.213 h -18 l -14,14 v 27 c 0,0.55 0.449,1 1,1 h 11 v -11 h -4 c -1.1,0 -1.418,-0.688 -0.709,-1.526 l 8.416,-9.947 c 0.711,-0.84 1.875,-0.84 2.584,0 l 8.416,9.947 c 0.711,0.839 0.393,1.526 -0.707,1.526 h -4 v 11 h 10 c 0.549,0 1,-0.45 1,-1 v -40 c 0,-0.551 -0.451,-1 -1,-1 z m -18,14 h -12 l 12,-12 v 12 z"
		      style="fill:#333333"/>
	</g>
</svg>
