<?xml version="1.0" encoding="UTF-8" standalone="no"?>
<svg width="64" height="64">
	<g transform="matrix(1.2,0,0,1.2,-3.2008856,-206.932)">
		<path d="m 43.688,193.586 h -1.077 v -8.353 c 0,-4.743 -3.881,-8.623 -8.623,-8.623 h -8.623 c -4.742,0 -8.623,3.88 -8.623,8.623 v 8.353 h -1.078 c -1.778,0 -3.232,1.455 -3.232,3.234 v 21.557 c 0,1.778 1.454,3.233 3.232,3.233 h 28.024 c 1.779,0 3.233,-1.455 3.233,-3.233 V 196.82 c 10e-4,-1.779 -1.453,-3.234 -3.233,-3.234 z m -11.856,14.928 v 6.81 h -4.311 v -6.81 c -1.413,-0.769 -2.383,-2.248 -2.383,-3.969 0,-2.506 2.031,-4.538 4.538,-4.538 2.505,0 4.536,2.032 4.536,4.538 10e-4,1.721 -0.968,3.2 -2.38,3.969 z m 4.516,-14.928 H 23.006 v -7.545 c 0,-2.371 1.938,-4.31 4.311,-4.31 h 4.721 c 2.37,0 4.311,1.939 4.311,4.31 v 7.545 z"
		      style="fill:#333333" />
	</g>
</svg>
