<?xml version="1.0" encoding="UTF-8" standalone="no"?>
<svg width="64" height="64">
	<g transform="matrix(1.2,0,0,1.2,-579.7336,-421.8556)">
		<path d="m 509.778,363.895 c 7.908,0 14.318,6.411 14.318,14.318 0,7.907 -6.41,14.318 -14.318,14.318 -7.908,0 -14.318,-6.411 -14.318,-14.318 0,-7.907 6.41,-14.318 14.318,-14.318 m 0,-8.182 c -12.406,0 -22.5,10.094 -22.5,22.5 0,12.406 10.094,22.5 22.5,22.5 12.406,0 22.5,-10.094 22.5,-22.5 0,-12.406 -10.094,-22.5 -22.5,-22.5 l 0,0 z"
		      style="fill:#333333" />
		<polygon points="498.698,373.228 509.778,387.162 520.857,373.228 "
		         style="fill:#333333" />
	</g>
</svg>
