<?xml version="1.0" encoding="UTF-8" standalone="no"?>
<svg width="64" height="64">
	<g transform="matrix(1.2000267,0,0,1.2000267,-3.5226163,-279.15673)">
		<path d="m 36.314,239.696 v 8.396 c 4.282,2.353 7.191,6.905 7.191,12.126 0,7.626 -6.203,13.829 -13.829,13.829 -7.626,0 -13.829,-6.203 -13.829,-13.829 0,-5.221 2.91,-9.773 7.191,-12.126 v -8.396 c -8.664,2.802 -14.936,10.925 -14.936,20.522 0,11.915 9.658,21.573 21.573,21.573 11.915,0 21.573,-9.658 21.573,-21.573 0.002,-9.596 -6.269,-17.72 -14.934,-20.522 z"
		      style="fill:#333333"/>
		<path d="m 32.998,256.706 c 0,1.218 -0.995,2.213 -2.213,2.213 h -2.217 c -1.218,0 -2.213,-0.995 -2.213,-2.213 v -17.701 c 0,-1.218 0.995,-2.213 2.213,-2.213 h 2.217 c 1.218,0 2.213,0.995 2.213,2.213 v 17.701 z"
		      style="fill:#333333"/>
	</g>
</svg>
