<?xml version="1.0" encoding="UTF-8" standalone="no"?>
<svg width="64" height="64">
	<g transform="matrix(1.3012048,0,0,1.255814,-631.32431,-293.62251)">
		<circle d="m 514.52701,259.29199 c 0,2.20914 -1.79086,4 -4,4 -2.20914,0 -4,-1.79086 -4,-4 0,-2.20914 1.79086,-4 4,-4 2.20914,0 4,1.79086 4,4 z"
		        style="fill:#333333"
		        cx="510.52701"
		        cy="259.29199"
		        r="4"/>
		<path d="m 530.527,254.292 v -13 l -4.098,3.514 c -4.137,-4.393 -10.08,-7.014 -15.902,-7.014 -11.855,0 -21.5,9.646 -21.5,21.5 0,11.854 9.645,21.5 21.5,21.5 8.551,0 16.287,-5.064 19.711,-12.902 l -6.416,-2.801 c -2.309,5.287 -7.527,8.703 -13.295,8.703 -7.996,0 -14.5,-6.504 -14.5,-14.5 0,-7.994 6.504,-14.5 14.5,-14.5 3.824,0 7.744,1.715 10.568,4.584 l -4.568,3.916 14,1 z"
		      style="fill:#333333"/>
	</g>
</svg>
