<?xml version="1.0" encoding="UTF-8" standalone="no"?>
<svg width="64" height="64">
	<g transform="matrix(1.2000267,0,0,1.2000267,-651.9777,-351.11481)">
		<path d="m 579.088,319.255 12.91,-12.908 c 0.627,-0.627 0.627,-1.654 0,-2.281 l -6.84,-6.842 c -0.627,-0.625 -1.652,-0.625 -2.279,0 l -12.91,12.91 -12.91,-12.91 c -0.627,-0.625 -1.654,-0.625 -2.281,0 l -6.84,6.842 c -0.625,0.627 -0.625,1.654 0,2.281 l 12.91,12.908 -12.908,12.908 c -0.627,0.627 -0.627,1.654 0,2.281 l 6.84,6.842 c 0.627,0.625 1.654,0.625 2.281,0 l 12.908,-12.91 12.908,12.91 c 0.627,0.625 1.652,0.625 2.279,0 l 6.84,-6.842 c 0.627,-0.627 0.627,-1.654 0,-2.281 l -12.908,-12.908 z"
		      style="fill:#333333" />
	</g>
</svg>
