<?xml version="1.0" encoding="UTF-8" standalone="no"?>
<svg
   xmlns:dc="http://purl.org/dc/elements/1.1/"
   xmlns:cc="http://creativecommons.org/ns#"
   xmlns:rdf="http://www.w3.org/1999/02/22-rdf-syntax-ns#"
   xmlns:svg="http://www.w3.org/2000/svg"
   xmlns="http://www.w3.org/2000/svg"
   xmlns:sodipodi="http://sodipodi.sourceforge.net/DTD/sodipodi-0.dtd"
   xmlns:inkscape="http://www.inkscape.org/namespaces/inkscape"
   width="64"
   height="64"
   id="svg3028"
   version="1.1"
   inkscape:version="0.48.3.1 r9886"
   sodipodi:docname="Remove2.svg">
  <metadata
     id="metadata3038">
    <rdf:RDF>
      <cc:Work
         rdf:about="">
        <dc:format>image/svg+xml</dc:format>
        <dc:type
           rdf:resource="http://purl.org/dc/dcmitype/StillImage" />
      </cc:Work>
    </rdf:RDF>
  </metadata>
  <defs
     id="defs3036" />
  <sodipodi:namedview
     pagecolor="#ffffff"
     bordercolor="#666666"
     borderopacity="1"
     objecttolerance="10"
     gridtolerance="10"
     guidetolerance="10"
     inkscape:pageopacity="0"
     inkscape:pageshadow="2"
     inkscape:window-width="1680"
     inkscape:window-height="968"
     id="namedview3034"
     showgrid="true"
     inkscape:zoom="9.0377085"
     inkscape:cx="14.895958"
     inkscape:cy="28.796248"
     inkscape:window-x="0"
     inkscape:window-y="27"
     inkscape:window-maximized="1"
     inkscape:current-layer="svg3028">
    <inkscape:grid
       type="xygrid"
       id="grid3040" />
  </sodipodi:namedview>
  <g
     transform="matrix(1.2000267,0,0,1.2000267,-651.9777,-351.11481)"
     id="g3030">
    <path
       d="m 576.63525,319.25524 15.35699,-15.27674 c 0.627,-0.627 0.627,-1.654 0,-2.281 l -4.29338,-4.3352 c -0.627,-0.625 -1.652,-0.625 -2.279,0 l -15.45113,15.22642 -15.83298,-15.45692 c -0.627,-0.625 -1.654,-0.625 -2.281,0 l -3.9859,4.00946 c -0.625,0.627 -0.625,1.654 0,2.281 l 15.43337,15.83298 -15.31612,15.67389 c -0.61972,0.63419 -0.627,1.654 0,2.281 l 4.14303,4.07587 c 0.627,0.625 1.654,0.625 2.281,0 l 15.5586,-15.36424 16.05393,15.36226 c 0.627,0.625 1.652,0.625 2.279,0 l 3.69434,-4.06095 c 0.627,-0.627 0.62038,-1.64745 0,-2.281 z"
       style="fill:#fe0000;fill-opacity:0.88627452"
       id="path3032"
       inkscape:connector-curvature="0"
       sodipodi:nodetypes="cccccccccccscccccccsc" />
  </g>
</svg>
