<svg xmlns:rdf="http://www.w3.org/1999/02/22-rdf-syntax-ns#" xmlns="http://www.w3.org/2000/svg" height="64" width="64" version="1.1" xmlns:cc="http://creativecommons.org/ns#" xmlns:dc="http://purl.org/dc/elements/1.1/">
	<metadata>
		<rdf:RDF>
			<cc:Work rdf:about="">
				<dc:format>image/svg+xml</dc:format>
				<dc:type rdf:resource="http://purl.org/dc/dcmitype/StillImage"/>
				<dc:title/>
			</cc:Work>
		</rdf:RDF>
	</metadata>
	<path d="M56.308,30.297c-0.34-11.332-7.1-21.282-17.44-25.505-10.575-4.3193-22.883-1.4808-30.624,7.062l6.7808,6.444c5.1608-5.6978,13.367-7.5874,20.417-4.7076,6.802,2.7782,11.249,9.2808,11.584,16.709l-6.7794,0.0046,11.511,14.941,10.893-14.949-6.3435-0.000321z" fill="#333"/>
	<g transform="matrix(0.71188026,0,0,0.77215001,-386.35967,-207.86869)">
		<path fill="#333" d="m579.09,319.26,12.91-12.908c0.627-0.627,0.627-1.654,0-2.281l-6.84-6.842c-0.627-0.625-1.652-0.625-2.279,0l-12.91,12.91-12.91-12.91c-0.627-0.625-1.654-0.625-2.281,0l-6.84,6.842c-0.625,0.627-0.625,1.654,0,2.281l12.91,12.908-12.908,12.908c-0.627,0.627-0.627,1.654,0,2.281l6.84,6.842c0.627,0.625,1.654,0.625,2.281,0l12.908-12.91,12.908,12.91c0.627,0.625,1.652,0.625,2.279,0l6.84-6.842c0.627-0.627,0.627-1.654,0-2.281l-12.908-12.908z"/>
	</g>
</svg>
