<?xml version="1.0" encoding="UTF-8" standalone="no"?>
<svg width="64px" height="64px">
	<g transform="matrix(1.2,0,0,1.2000267,-436.7836,-495.40152)">
		<rect style="fill:#333333"
		      x="386.36899"
		      y="419.13501"
		      width="8.5719995"
		      height="10.714"
		/>
		<path style="fill:#333333"
		      d="m 403.435,416.992 h -3.139 v 16.071 h -25.713 v -16.071 h -5.893 c -0.295,0 -0.537,0.241 -0.537,0.535 v 43.929 c 0,0.295 0.242,0.535 0.537,0.535 h 43.928 c 0.295,0 0.535,-0.24 0.535,-0.535 V 426.71 l -9.718,-9.718 z m 3.291,41.784 h -32.143 v -21.428 h 32.143 v 21.428 z"
		/>
		<polygon style="fill:#333333" points="403.511,445.921 403.511,445.921 377.798,445.921 377.798,442.706 403.511,442.706 " />
		<polygon style="fill:#333333" points="403.511,453.421 403.511,453.421 377.798,453.421 377.798,450.206 403.511,450.206 " />
	</g>
</svg>