<?xml version="1.0" encoding="UTF-8" standalone="no"?>
<svg width="64" height="64">
	<g transform="matrix(1.1999941,0,0,1.2,-75.451168,-351.106)">
		<path d="m 104.793,296.755 h -24.75 c -1.237,0 -2.25,1.013 -2.25,2.25 v 9 c 0,1.237 -0.562,3.093 -1.248,4.122 l -2.004,3.005 c -0.687,1.029 -1.248,2.885 -1.248,4.123 0,1.236 0.905,1.797 2.013,1.244 l 0.475,-0.238 c 1.107,-0.554 2.013,0.006 2.013,1.244 v 2.25 c 0,1.236 -0.717,2.967 -1.591,3.84 l -1.318,1.318 c -0.874,0.875 -1.591,2.604 -1.591,3.842 v 6.75 c 0,1.236 1.013,2.25 2.25,2.25 h 24.75 c 4.359,0 6.75,-2.25 6.75,-6.75 v -36 c -10e-4,-1.237 -1.014,-2.25 -2.251,-2.25 z m -20.25,13 c 0,0.275 -0.225,0.5 -0.5,0.5 h -1.25 c -0.275,0 -0.5,-0.225 -0.5,-0.5 v -8 c 0,-0.275 0.225,-0.5 0.5,-0.5 h 1.25 c 0.275,0 0.5,0.225 0.5,0.5 v 8 z m 4.5,0 c 0,0.275 -0.225,0.5 -0.5,0.5 h -1.25 c -0.275,0 -0.5,-0.225 -0.5,-0.5 v -8 c 0,-0.275 0.225,-0.5 0.5,-0.5 h 1.25 c 0.275,0 0.5,0.225 0.5,0.5 v 8 z m 4.5,0 c 0,0.275 -0.225,0.5 -0.5,0.5 h -1.25 c -0.275,0 -0.5,-0.225 -0.5,-0.5 v -8 c 0,-0.275 0.225,-0.5 0.5,-0.5 h 1.25 c 0.275,0 0.5,0.225 0.5,0.5 v 8 z m 4.5,0 c 0,0.275 -0.225,0.5 -0.5,0.5 h -1.25 c -0.275,0 -0.5,-0.225 -0.5,-0.5 v -8 c 0,-0.275 0.225,-0.5 0.5,-0.5 h 1.25 c 0.275,0 0.5,0.225 0.5,0.5 v 8 z m 4.5,0 c 0,0.275 -0.225,0.5 -0.5,0.5 h -1.25 c -0.275,0 -0.5,-0.225 -0.5,-0.5 v -8 c 0,-0.275 0.225,-0.5 0.5,-0.5 h 1.25 c 0.275,0 0.5,0.225 0.5,0.5 v 8 z"
		      style="fill:#333333" />
	</g>
</svg>
