<?xml version="1.0" encoding="UTF-8" standalone="no"?>
<svg width="64" height="64">
	<g transform="matrix(1.2,0,0,1.2,-436.9344,-711.5908)">
		<path d="m 408.302,604.218 h -7.95 c 0.002,-0.055 0.009,-0.109 0.009,-0.166 v -1.6 c 0,-2.91 -2.384,-5.293 -5.294,-5.293 h -8.824 c -2.912,0 -5.294,2.383 -5.294,5.293 v 1.6 c 0,0.057 0.007,0.111 0.009,0.166 h -7.95 c -1.456,0 -2.646,1.191 -2.646,2.646 v 2.646 c 0,1.457 1.19,2.648 2.646,2.648 h 0.883 v -1.766 h 33.529 v 1.766 h 0.883 c 1.455,0 2.646,-1.191 2.646,-2.648 v -2.646 c -0.001,-1.455 -1.192,-2.646 -2.647,-2.646 z m -22.969,-2.647 h 10.588 v 2.646 h -10.588 v -2.646 z"
		      style="fill:#333333"/>
		<path d="m 375.654,613.042 v 26.469 c 0,1.457 1.19,2.648 2.647,2.648 h 24.705 c 1.456,0 2.647,-1.191 2.647,-2.648 v -26.469 h -29.999 z m 8.824,23.381 c 0,0.486 -0.397,0.883 -0.882,0.883 h -1.765 c -0.486,0 -0.883,-0.396 -0.883,-0.883 v -17.646 c 0,-0.484 0.396,-0.883 0.883,-0.883 h 1.765 c 0.484,0 0.882,0.398 0.882,0.883 v 17.646 z m 7.941,0 c 0,0.486 -0.398,0.883 -0.882,0.883 h -1.766 c -0.485,0 -0.882,-0.396 -0.882,-0.883 v -17.646 c 0,-0.484 0.396,-0.883 0.882,-0.883 h 1.766 c 0.483,0 0.882,0.398 0.882,0.883 v 17.646 z m 7.941,0 c 0,0.486 -0.398,0.883 -0.883,0.883 h -1.765 c -0.485,0 -0.882,-0.396 -0.882,-0.883 v -17.646 c 0,-0.484 0.396,-0.883 0.882,-0.883 h 1.765 c 0.484,0 0.883,0.398 0.883,0.883 v 17.646 z"
		      style="fill:#333333"/>
	</g>
</svg>
