<?xml version="1.0" encoding="UTF-8" standalone="no"?>
<svg width="64" height="64">
	<g transform="matrix(1.1999733,0,0,1.1999733,-579.72065,-63.509343)">
		<path d="m 528.054,71.68 c -3.166,-7.28 -10.25,-11.956 -18.232,-11.956 -8.164,0 -15.625,5.116 -18.564,12.729 l 6.188,2.39 c 1.959,-5.077 6.934,-8.486 12.377,-8.486 5.251,0 9.9,3.048 12.05,7.791 l -4.514,1.804 11.543,6.66 3.377,-12.617 -4.225,1.685 z"
		      style="fill:#333333"/>
		<path d="m 509.822,92.88 c -5.205,0 -9.952,-3.14 -12.074,-7.853 l 4.45,-1.721 -11.423,-6.515 -3.497,12.281 4.26,-1.646 c 3.106,7.252 10.357,12.084 18.284,12.084 8.193,0 15.449,-4.917 18.484,-12.524 l -6.158,-2.457 c -2.026,5.073 -6.862,8.351 -12.326,8.351 z"
		      style="fill:#333333"/>
	</g>
</svg>
