<?xml version="1.0" encoding="UTF-8" standalone="no"?>
<svg width="64" height="64">
	<g transform="matrix(1.2249898,0,0,1.2249898,-3.7905268,-358.08412)">
		<polygon points="16.82,325.684 7.176,325.684 7.176,312.827 16.82,312.827 27.534,302.112 27.534,336.398 "
		    style="fill:#333333" />
		<path d="m 47.081,319.255 4.918,-4.917 c 0.238,-0.24 0.238,-0.631 0,-0.87 l -2.607,-2.606 c -0.237,-0.238 -0.629,-0.238 -0.866,0 l -4.919,4.918 -4.92,-4.918 c -0.236,-0.238 -0.629,-0.238 -0.867,0 l -2.605,2.606 c -0.239,0.239 -0.239,0.63 0,0.87 l 4.917,4.917 -4.917,4.917 c -0.239,0.24 -0.239,0.632 0,0.87 l 2.607,2.607 c 0.236,0.236 0.629,0.236 0.867,0 l 4.918,-4.919 4.916,4.919 c 0.24,0.236 0.632,0.236 0.869,0 l 2.607,-2.607 c 0.236,-0.237 0.236,-0.63 0,-0.87 l -4.918,-4.917 z"
		    style="fill:#333333" />
	</g>
</svg>
