<?xml version="1.0" encoding="UTF-8" standalone="no"?>
<svg width="64" height="64">
	<g transform="matrix(1.300523,0,0,1.300523,-4.3338536,-458.79144)">
		<polygon points="16.142,372.236 26.103,362.274 26.103,394.151 16.142,384.189 7.177,384.189 7.177,372.236 "
		         style="fill:#333333" />
		<path d="m 34.567,369.749 -2.816,2.816 c 1.447,1.446 2.344,3.444 2.344,5.647 0,2.203 -0.896,4.201 -2.344,5.646 l 2.816,2.816 c 2.168,-2.168 3.512,-5.161 3.512,-8.463 0,-3.302 -1.344,-6.293 -3.512,-8.462 z"
		      style="fill:#333333" />
		<path d="m 39.704,365.025 -2.816,2.816 c 2.645,2.645 4.283,6.297 4.283,10.324 0,4.027 -1.639,7.68 -4.283,10.324 l 2.816,2.816 c 3.365,-3.367 5.451,-8.015 5.451,-13.141 0,-5.123 -2.086,-9.771 -5.451,-13.139 z"
		      style="fill:#333333" />
		<path d="m 44.56,359.854 -2.816,2.816 c 3.982,3.982 6.449,9.48 6.449,15.543 0,6.063 -2.467,11.561 -6.447,15.543 l 2.814,2.816 c 4.705,-4.704 7.617,-11.197 7.617,-18.359 0,-7.162 -2.914,-13.655 -7.617,-18.359 z"
		      style="fill:#333333" />
	</g>
</svg>
