<?xml version="1.0" encoding="UTF-8" standalone="no"?>
<svg width="64" height="64">
	<g transform="matrix(1.2000035,0,0,1.2000035,-76.201658,-63.592236)">
		<path d="M 111.858,93.287 93.524,62.64 C 91.67,59.542 88.639,59.543 86.789,62.641 L 68.476,93.286 c -1.851,3.098 -0.413,5.633 3.197,5.633 h 36.993 c 3.608,-10e-4 5.045,-2.535 3.192,-5.632 z M 88.2,73.367 c 0,-1.084 0.887,-1.969 1.969,-1.969 1.083,0 1.969,0.885 1.969,1.969 v 9.192 c 0,1.085 -0.886,1.969 -1.969,1.969 -1.082,0 -1.969,-0.884 -1.969,-1.969 v -9.192 z m 1.969,19.596 c -1.449,0 -2.625,-1.177 -2.625,-2.625 0,-1.451 1.176,-2.624 2.625,-2.624 1.45,0 2.625,1.173 2.625,2.624 0,1.449 -1.175,2.625 -2.625,2.625 z"
		      style="fill:#333333" />
	</g>
</svg>
