<?xml version="1.0" encoding="UTF-8" standalone="no"?>
<svg width="64" height="64">
	<g transform="matrix(1.2000267,0,0,1.2000267,-220.089,-63.543123)">
		<path d="m 232.569,79.617 -16.755,-3.49 2.864,-5.115 -5.023,3.029 -3.585,-16.924 -3.585,16.924 -5.023,-3.029 2.864,5.115 -16.755,3.49 h -0.001 l 0.001,0 0,0 16.755,3.49 -2.864,5.114 5.023,-3.029 3.585,16.925 3.585,-16.925 5.023,3.029 -2.864,-5.114 16.755,-3.49 0,0 0,0 0,0 z m -22.499,4.302 c -2.376,0 -4.302,-1.925 -4.302,-4.301 0,-2.375 1.926,-4.301 4.302,-4.301 2.376,0 4.302,1.926 4.302,4.301 0,2.376 -1.926,4.301 -4.302,4.301 z"
		      style="fill:#451c54" />
		<g>
			<path d="m 199.03,75.203 c 1.204,-2.997 3.589,-5.393 6.58,-6.609 l 1.242,-5.866 c -6.921,1.314 -12.371,6.771 -13.676,13.694 l 5.854,-1.219 z"
			      style="fill:#451c54" />
			<path d="m 221.139,84.026 c -1.204,3.017 -3.604,5.428 -6.615,6.644 l -1.24,5.861 c 6.939,-1.307 12.404,-6.779 13.703,-13.723 l -5.848,1.218 z"
			      style="fill:#451c54" />
			<path d="m 214.529,68.586 c 3.002,1.214 5.396,3.615 6.603,6.622 l 5.852,1.219 C 225.679,69.495 220.22,64.032 213.289,62.725 l 1.24,5.861 z"
			      style="fill:#451c54" />
			<path d="m 205.614,90.663 c -3,-1.219 -5.391,-3.624 -6.592,-6.632 l -5.85,-1.218 c 1.299,6.935 6.754,12.402 13.684,13.715 l -1.242,-5.865 z"
			      style="fill:#451c54" />
		</g>
	</g>
</svg>
