<?xml version="1.0" encoding="UTF-8" standalone="no"?>
<svg width="64" height="64">
	<!-- Gear icon -->
	<path d="M32,20 a12,12 0 1,0 0,24 a12,12 0 1,0 0,-24 M32,26 a6,6 0 1,1 0,12 a6,6 0 1,1 0,-12"
	      style="fill:#FFFFFF;fill-rule:evenodd"/>
	<!-- Gear teeth -->
	<rect x="29" y="4" width="6" height="10" rx="1" style="fill:#FFFFFF"/>
	<rect x="29" y="50" width="6" height="10" rx="1" style="fill:#FFFFFF"/>
	<rect x="4" y="29" width="10" height="6" rx="1" style="fill:#FFFFFF"/>
	<rect x="50" y="29" width="10" height="6" rx="1" style="fill:#FFFFFF"/>
	<rect x="10" y="10" width="6" height="10" rx="1" transform="rotate(45,13,15)" style="fill:#FFFFFF"/>
	<rect x="48" y="44" width="6" height="10" rx="1" transform="rotate(45,51,49)" style="fill:#FFFFFF"/>
	<rect x="48" y="10" width="6" height="10" rx="1" transform="rotate(-45,51,15)" style="fill:#FFFFFF"/>
	<rect x="10" y="44" width="6" height="10" rx="1" transform="rotate(-45,13,49)" style="fill:#FFFFFF"/>
</svg>
