<?xml version="1.0" encoding="UTF-8" standalone="no"?>
<svg
   width="64"
   height="64"
   version="1.1"
   id="svg8"
   xmlns="http://www.w3.org/2000/svg"
   xmlns:svg="http://www.w3.org/2000/svg">
  <defs
     id="defs8" />
  <!-- Gear icon -->
  <path
     d="m 32,20 a 12,12 0 1 0 0,24 12,12 0 1 0 0,-24 m 0,6 a 6,6 0 1 1 0,12 6,6 0 1 1 0,-12"
     style="fill:#000000;fill-opacity:1;fill-rule:evenodd"
     id="path1" />
  <!-- Gear teeth -->
  <rect
     x="29"
     y="4"
     width="6"
     height="10"
     rx="1"
     style="fill:#000000;fill-opacity:1"
     id="rect1" />
  <rect
     x="29"
     y="50"
     width="6"
     height="10"
     rx="1"
     style="fill:#000000;fill-opacity:1"
     id="rect2" />
  <rect
     x="4"
     y="29"
     width="10"
     height="6"
     rx="1"
     style="fill:#000000;fill-opacity:1"
     id="rect3" />
  <rect
     x="50"
     y="29"
     width="10"
     height="6"
     rx="1"
     style="fill:#000000;fill-opacity:1"
     id="rect4" />
  <rect
     x="16.79899"
     y="-3.5857863"
     width="6"
     height="10"
     rx="1"
     transform="rotate(45)"
     style="fill:#000000;fill-opacity:1"
     id="rect5" />
  <rect
     x="67.710678"
     y="-6.4142137"
     width="6"
     height="10"
     rx="1"
     transform="rotate(45)"
     style="fill:#000000;fill-opacity:1"
     id="rect6" />
  <rect
     x="22.455845"
     y="41.669048"
     width="6"
     height="10"
     rx="1"
     transform="rotate(-45)"
     style="fill:#000000;fill-opacity:1"
     id="rect7" />
  <rect
     x="-28.455845"
     y="38.840622"
     width="6"
     height="10"
     rx="1"
     transform="rotate(-45)"
     style="fill:#000000;fill-opacity:1"
     id="rect8" />
</svg>
