# Blender v2.92.0 OBJ File: 'Entry.blend'
# www.blender.org
mtllib Entry.mtl
o Cube
v 20.042355 20.042355 -7.751226
v 20.042355 -20.042355 -7.751226
v 20.042355 20.042355 4.633502
v 20.042355 -20.042355 4.633502
v -20.042355 20.042355 -7.751226
v -20.042355 -20.042355 -7.751226
v -20.042355 20.042355 4.633502
v -20.042355 -20.042355 4.633502
v 10.127714 10.127714 7.726907
v 10.127714 -10.127714 7.726907
v -10.127714 10.127714 7.726907
v -10.127714 -10.127714 7.726907
v -10.127714 -10.127714 9.146553
v -10.127714 10.127714 9.146553
v 10.127714 10.127714 9.146553
v 10.127714 -10.127714 9.146553
vt 0.174907 0.947863
vt 0.131613 0.991157
vt 0.132843 0.945402
vt 0.074219 0.995849
vt 0.120606 0.943115
vt 0.121582 0.993408
vt 0.178368 0.944941
vt 0.137534 0.984544
vt 0.142456 0.948632
vt 0.171985 0.949093
vt 0.136074 0.991157
vt 0.137304 0.950323
vt 0.174677 0.949093
vt 0.135074 0.992387
vt 0.136304 0.949093
vt 0.112927 0.992387
vt 0.078245 0.948093
vt 0.073324 0.991157
vt 0.101769 0.970961
vt 0.080974 0.959440
vt 0.102023 0.957458
vt 0.111927 0.985005
vt 0.078476 0.953015
vt 0.082167 0.983774
vt 0.137534 0.988235
vt 0.177138 0.947863
vt 0.135074 0.947862
vt 0.013265 0.951784
vt 0.051868 0.992387
vt 0.013034 0.993618
vt 0.178598 0.993618
vt 0.074219 0.944092
vt 0.178368 0.988235
vt 0.173216 0.991157
vt 0.175907 0.989926
vt 0.111696 0.944402
vt 0.080720 0.975385
vt 0.113157 0.949323
vt 0.172446 0.988465
vt 0.054098 0.951784
vt 0.000100 0.000100
vt 0.999900 0.999900
vt 0.000100 0.999900
vt 0.999900 0.000100
vn 0.0000 1.0000 0.0000
vn -0.2978 0.0000 0.9546
vn -1.0000 0.0000 0.0000
vn 0.0000 -1.0000 0.0000
vn 1.0000 0.0000 0.0000
vn 0.0000 -0.2978 0.9546
vn 0.0000 0.2978 0.9546
vn 0.2978 0.0000 0.9546
vn 0.0000 0.0000 -1.0000
vn 0.0000 0.0000 1.0000
usemtl center
s off
f 5/1/1 3/2/1 1/3/1
f 8/4/2 11/5/2 7/6/2
f 7/7/3 6/8/3 8/9/3
f 2/10/4 8/11/4 6/12/4
f 1/13/5 4/14/5 2/15/5
f 4/16/6 12/17/6 8/18/6
f 7/19/7 9/20/7 3/21/7
f 3/22/8 10/23/8 4/24/8
f 6/25/9 1/26/9 2/27/9
f 10/28/10 11/29/10 12/30/10
f 5/1/1 7/31/1 3/2/1
f 8/4/2 12/32/2 11/5/2
f 7/7/3 5/33/3 6/8/3
f 2/10/4 4/34/4 8/11/4
f 1/13/5 3/35/5 4/14/5
f 4/16/6 10/36/6 12/17/6
f 7/19/7 11/37/7 9/20/7
f 3/22/8 9/38/8 10/23/8
f 6/25/9 5/39/9 1/26/9
f 10/28/10 9/40/10 11/29/10
usemtl TextArea
f 15/41/10 13/42/10 16/43/10
f 15/41/10 14/44/10 13/42/10
